PathFileType	4	(X/Y/Z)	C:/Users/opensim2020/Desktop/walking_exp_matlab/subject01_walking07_straight_02.trc																																																																																																																															
DataRate	CameraRate	NumFrames	NumMarkers	Units	OrigDataRate	OrigDataStartFrame	OrigNumFrames																																																																																																																											
100	100	8	43	mm	100	1562	178																																																																																																																											
Frame#	Time	LFHD			RFHD			LBHD			RBHD			C7			T10			CLAV			STRN			RBAK			LSHO			LUPA			LELB			LFRM			LWRA			LWRB			LFIN			RSHO			RUPA			RELB			RFRM			RWRA			RWRB			RFIN			LASI			RASI			LPSI			RPSI			LTHI			LKNE			LTIB			LANK			LHEE			LTOE			RTHI			RKNE			RTIB			RANK			RHEE			RTOE			*39			*40			*41			*42		
		X1	Y1	Z1	X2	Y2	Z2	X3	Y3	Z3	X4	Y4	Z4	X5	Y5	Z5	X6	Y6	Z6	X7	Y7	Z7	X8	Y8	Z8	X9	Y9	Z9	X10	Y10	Z10	X11	Y11	Z11	X12	Y12	Z12	X13	Y13	Z13	X14	Y14	Z14	X15	Y15	Z15	X16	Y16	Z16	X17	Y17	Z17	X18	Y18	Z18	X19	Y19	Z19	X20	Y20	Z20	X21	Y21	Z21	X22	Y22	Z22	X23	Y23	Z23	X24	Y24	Z24	X25	Y25	Z25	X26	Y26	Z26	X27	Y27	Z27	X28	Y28	Z28	X29	Y29	Z29	X30	Y30	Z30	X31	Y31	Z31	X32	Y32	Z32	X33	Y33	Z33	X34	Y34	Z34	X35	Y35	Z35	X36	Y36	Z36	X37	Y37	Z37	X38	Y38	Z38	X39	Y39	Z39	X40	Y40	Z40	X41	Y41	Z41	X42	Y42	Z42	X43	Y43	Z43
																																																																																																																																		
134	1.33	322.74564	1659.50903	1015.09595	368.1532	1666.96863	1120.68237	211.14925	1619.48706	1059.0282	256.44327	1627.48987	1170.9845	179.28244	1426.12097	1102.00354	140.04514	1133.60266	1111.16748	322.11774	1357.82068	1084.6709	363.30121	1202.56079	1078.76025	132.58928	1235.67114	1189.27393	244.38605	1385.98669	930.28876	181.71956	1203.31592	857.35535	141.37239	1061.0293	870.36157	144.12488	947.61237	846.33112	183.45747	812.50964	866.61212	129.8427	825.68219	841.92352	149.80223	740.77521	840.52698	280.30493	1391.92102	1242.18774	245.02155	1193.62463	1354.40381	260.81042	1067.14514	1363.06946	337.59705	969.22461	1386.08655	460.62521	906.08521	1359.96704	423.0495	881.80499	1396.35413	493.81174	833.19507	1390.99524	307.72296	928.04803	990.92236	313.0748	924.27527	1209.53723	123.36953	936.2121	1045.51172	127.27322	944.08459	1189.00476	334.24411	605.61975	912.14813	370.63901	478.98145	932.07349	383.96832	295.43713	917.48358	450.78491	79.98391	958.23065	427.12009	36.67466	1017.34821	597.27515	89.09608	936.91516	203.55193	599.87994	1263.18823	176.81209	441.07645	1238.60583	83.00948	290.86292	1245.89587	5.92635	97.65483	1198.85767	-51.35796	71.97081	1150.62537	135.15923	33.78603	1193.83923	351.00827	1700.45032	1100.80835	-1973.12585	1023.45062	3101.81299	-2012.60754	1022.05353	3140.65845	NaN	NaN	NaN
135	1.34	332.30841	1658.67676	1012.58954	377.88583	1665.95801	1118.22546	220.7764	1618.58057	1056.71533	266.1568	1626.63513	1168.58862	189.02975	1424.92126	1099.28589	150.02162	1132.4231	1109.30396	332.06458	1357.06482	1082.61292	373.23874	1201.79688	1076.89526	142.28749	1234.61194	1187.19458	254.00406	1384.75098	928.10889	191.47383	1201.87244	855.31641	151.01326	1059.6969	868.75043	153.5425	946.3089	844.87958	192.56744	811.13324	865.38623	139.00755	824.4198	840.51727	158.59605	739.48328	839.34021	289.76511	1391.22144	1240.21802	255.10918	1192.98706	1352.38171	270.87576	1066.48926	1361.37341	347.82782	969.03656	1384.48291	470.9306	905.84448	1357.91858	433.62866	881.7561	1394.66406	504.3674	833.26624	1389.04431	318.39175	926.75385	989.77936	323.20129	923.33502	1208.35999	133.76381	935.13562	1043.50415	137.25929	943.34747	1187.06799	345.27579	605.0116	911.33197	380.76193	478.3317	931.45221	395.52505	294.40192	916.97107	463.96078	79.27901	958.25793	440.39557	36.11149	1017.30396	610.55365	89.24495	937.64697	212.01491	599.52356	1262.44678	184.33392	440.71411	1238.27087	87.95996	291.98337	1245.77832	7.60857	99.91277	1199.48535	-50.40924	75.24284	1151.13379	135.50192	33.8994	1193.96411	360.77536	1699.34143	1098.28784	-1973.14917	1023.42236	3101.9292	-2012.56909	1022.05139	3140.7312	NaN	NaN	NaN
136	1.35	342.06592	1657.44434	1010.08014	387.59006	1664.99414	1115.7345	230.46149	1617.57214	1054.21057	275.83539	1625.77283	1166.05457	198.3721	1424.01343	1097.4762	160.13322	1131.28564	1107.37463	341.62167	1356.29395	1080.34216	383.25156	1201.08105	1074.96399	152.08463	1233.50745	1184.94775	263.65433	1383.51685	925.85284	201.49928	1200.4679	853.18835	161.19067	1058.29041	866.85638	163.4353	944.927	843.24249	202.06041	809.69916	864.00311	148.60715	823.05505	839.07098	168.12807	738.08148	837.92889	299.32324	1390.36768	1237.81848	265.00897	1192.37024	1350.31689	280.78873	1065.87769	1359.51379	357.88428	968.27252	1382.47546	480.87903	905.30609	1355.80261	443.68271	881.15729	1392.61121	514.46912	832.87415	1387.12891	329.25504	925.66046	988.51215	333.44235	922.36774	1207.04309	144.30261	934.14252	1041.52002	147.71666	942.4494	1184.87207	357.69662	604.71313	911.04919	392.2879	477.44641	931.01959	406.099	293.10565	916.80469	474.69836	78.09304	958.42627	450.76614	35.06271	1017.49622	621.32019	88.03298	938.53839	220.82675	599.12573	1261.69531	191.93414	440.24542	1237.52405	93.41645	293.01016	1245.86218	9.30655	102.48753	1199.94836	-49.43391	78.89257	1152.08875	135.70039	33.88018	1194.06824	370.48474	1698.41357	1095.72327	-1973.1228	1023.22382	3102.01611	-2012.58984	1022.00848	3140.5918	NaN	NaN	NaN
137	1.36	351.68802	1656.41357	1007.5155	397.21536	1664.04358	1113.06238	240.07742	1616.74951	1051.75537	285.48276	1624.95813	1163.47351	208.12347	1422.99573	1094.78271	170.44148	1130.12341	1105.40063	351.48566	1355.53491	1078.04932	393.32474	1200.42505	1072.82397	161.94864	1232.39941	1182.62439	273.31558	1382.31897	923.50488	211.68887	1198.97925	851.0929	171.5285	1056.86316	864.91302	173.73929	943.52008	841.33887	212.12755	808.25696	862.43939	158.80745	821.68292	837.18927	178.03355	736.66211	836.41364	308.82169	1389.72083	1235.6709	274.74197	1191.75366	1348.04504	290.53937	1065.5155	1357.91199	367.63614	967.82916	1380.81445	490.45206	904.50922	1353.63562	453.36966	880.48163	1390.77966	524.07782	832.21735	1385.09082	339.98474	924.58588	987.03064	343.92615	921.48206	1205.60059	154.8604	933.26379	1039.58459	158.09494	941.63452	1182.87585	371.13058	604.76868	910.94543	404.02719	476.75458	930.81732	416.13367	291.85834	916.84338	482.94049	76.30271	958.98114	458.84674	33.63719	1018.06158	630.06714	85.3017	939.73584	230.06747	598.61401	1260.69287	200.39653	439.58093	1237.32629	99.06715	294.1478	1245.62781	11.25802	105.0862	1200.56421	-48.00747	82.96963	1152.87415	135.93626	34.11888	1194.20679	380.18643	1697.56824	1093.05652	-1972.92932	1023.78619	3102.07422	-2012.47754	1021.96204	3140.71362	NaN	NaN	NaN
138	1.37	361.13873	1655.4696	1004.88086	406.76788	1663.15527	1110.41016	249.58565	1615.78931	1049.14392	295.06244	1624.08948	1160.87915	217.88026	1421.67407	1092.0929	180.79297	1128.92786	1103.38562	361.35809	1354.7334	1075.65271	403.56796	1199.71606	1070.66248	171.93913	1231.22168	1180.28223	282.88058	1381.14722	921.10419	221.94148	1197.4967	848.76489	181.98117	1055.48035	862.70068	184.43719	942.01898	839.38885	222.65829	806.76276	860.7489	169.5587	820.18079	835.0943	188.67784	735.19098	834.70587	318.43713	1389.00647	1233.25452	284.39651	1191.07629	1345.64075	300.2655	1064.95032	1355.92041	377.20007	967.18585	1378.66565	499.7645	903.41296	1351.45776	462.75595	879.80774	1388.89233	533.17542	831.19482	1383.16345	351.09448	923.7016	985.40857	354.48511	920.62213	1204.02087	165.78351	932.31396	1037.61133	168.83873	940.79138	1180.78613	384.841	604.55664	911.03442	416.10648	476.0368	930.75134	425.23053	290.17859	917.13416	489.63339	74.1722	959.73523	464.18634	32.50466	1018.64606	636.74261	80.98663	941.2746	239.74321	598.052	1259.75476	209.17264	438.97073	1236.8772	104.70518	295.70276	1245.48267	13.43615	108.00816	1201.29114	-46.26071	87.05836	1153.63928	136.43759	34.25967	1194.40491	389.78806	1696.64026	1090.40784	-1973.11487	1023.72095	3101.93823	-2012.65698	1022.03217	3140.66797	NaN	NaN	NaN
139	1.38	370.70889	1654.4375	1002.14209	416.229	1662.27112	1107.69543	259.31482	1614.8418	1046.76831	304.57419	1623.15015	1158.19177	227.28574	1420.63049	1090.11426	191.36116	1127.68689	1101.27258	371.34567	1353.91907	1073.11194	413.95663	1199.05139	1068.36169	182.01299	1230.05713	1177.85571	292.61353	1379.95837	918.59924	232.51758	1195.97607	846.4809	192.84511	1053.96033	860.4491	195.39824	940.52136	837.26392	233.80612	805.35791	858.8017	180.70711	818.67236	833.06982	199.75757	733.61121	832.81824	328.18103	1388.14417	1230.51025	293.90457	1190.4458	1343.15527	309.78	1064.40393	1353.72473	386.362	966.24994	1376.55481	508.36926	901.84412	1349.27344	471.56122	878.54944	1387.0271	541.83289	829.82404	1381.15759	362.25058	922.84485	983.59229	365.33176	919.68762	1202.31616	176.77977	931.34308	1035.63452	179.34889	939.97839	1178.77673	398.72586	604.22723	911.3114	427.97836	475.40955	930.92883	434.04004	288.48178	917.41315	494.64587	71.86957	960.59039	466.90015	31.90047	1019.06873	641.67084	75.81306	943.37805	249.97185	597.39905	1258.62781	218.70673	438.13449	1236.50598	111.15169	297.0329	1245.43433	15.84025	111.14838	1201.8175	-44.24746	91.71645	1154.39844	136.60162	34.18529	1194.51196	399.21588	1695.75757	1087.68616	-1973.12427	1023.38074	3101.9856	-2012.60791	1021.91718	3140.70972	NaN	NaN	NaN
140	1.39	380.04825	1653.50513	999.36316	425.62936	1661.37976	1104.92407	268.56345	1613.76575	1043.75513	313.97037	1622.18958	1155.4093	236.95291	1419.43762	1087.45972	202.10524	1126.36084	1098.99268	381.4664	1353.13452	1070.46692	424.38242	1198.38782	1065.92822	192.20924	1228.83154	1175.41943	302.3551	1378.8075	915.91321	242.97957	1194.43713	843.95819	204.23592	1052.2417	858.18866	206.7961	938.98792	834.97253	245.39381	803.8493	856.65381	192.34436	817.0921	830.76068	211.60596	732.07104	830.74799	337.91461	1387.40271	1227.8783	303.37683	1189.83069	1340.59106	319.14056	1063.86902	1351.48523	395.29358	965.42065	1374.53088	516.89557	900.19257	1347.0752	480.07123	877.31256	1385.04517	550.05786	828.15594	1379.15295	373.64819	921.97296	981.62952	376.33606	918.83337	1200.50439	187.98114	930.29907	1033.57385	190.72575	939.15576	1176.60974	412.26651	603.64136	911.92853	440.51141	474.44925	931.06604	442.22244	286.32211	917.86279	497.34396	69.17324	961.86389	468.30234	31.0206	1019.74677	645.60571	68.76131	946.34332	260.71472	596.63831	1257.45569	228.87399	437.28177	1236.11548	117.82836	298.53113	1245.26013	18.52708	114.57251	1202.46741	-42.14194	96.5496	1154.73755	137.00533	34.2438	1194.6814	408.77615	1694.97717	1084.95654	-1973.15015	1023.3103	3101.98975	-2012.51611	1021.98859	3140.72217	NaN	NaN	NaN
141	1.4	389.52289	1652.74805	996.51593	434.98438	1660.63647	1102.18896	277.96036	1612.74329	1040.83545	323.3161	1621.35962	1152.64844	246.59286	1418.30994	1084.56567	212.84183	1124.96082	1096.54834	391.36707	1352.33997	1067.68469	434.90317	1197.84802	1063.37	202.49646	1227.56958	1172.83459	312.16776	1377.71887	913.12762	253.72473	1192.95703	841.41144	215.21642	1050.67957	855.64331	218.46774	937.37335	832.57068	257.41162	802.42145	854.40912	204.50056	815.45789	828.33337	223.82785	730.47827	828.47668	347.73868	1386.66516	1225.1062	312.75439	1189.20935	1337.95959	328.31097	1063.33203	1349.1344	403.98172	964.48846	1372.40515	525.10321	898.31903	1344.89868	488.27979	875.98499	1383.35059	557.77069	826.20331	1377.19885	385.10788	921.22205	979.71277	387.64536	917.97931	1198.60254	199.03722	929.23688	1031.27576	201.55542	938.34344	1174.51025	425.20316	602.70435	912.96619	452.43958	473.53229	930.7688	450.02316	284.49362	918.68542	500.26779	67.86858	963.05865	470.00348	32.02566	1020.51794	649.50159	60.11739	948.72485	271.884	595.96826	1256.19446	239.78047	436.22128	1235.75708	125.12884	300.2211	1245.06323	21.60927	118.29644	1203.23145	-39.08967	102.22994	1155.45813	137.38327	34.305	1194.96094	417.8699	1694.01306	1082.05164	-1973.04944	1023.2771	3102.00684	-2012.58057	1021.94775	3140.71704	NaN	NaN	NaN
